# xmcd CD database file
#
# Track frame offsets:
#	150
#	16551
#	39447
#	63258
#	75550
#	90730
#	107346
#	124501
#	139078
#	155385
#	168257
#	188307
#	203521
#	219295
#
# Disc length: 3434 seconds
#
# Revision: 0
# Processed by: cddbd v1.5.1PL0 Copyright (c) Steve Scherf et al.
# Submitted via: CDex 1.51
#
DISCID=970d680e
DTITLE=Andy Pratt - Andy Pratt Is Back
DYEAR=1900
DGENRE=Jazz
TTITLE0=I'm Alright
TTITLE1=Avenging Annie
TTITLE2=All I Want Is You
TTITLE3=Grey, Chick and Malda
TTITLE4=Karen's Song
TTITLE5=19th Nervous Breakdown
TTITLE6=Constant Heat
TTITLE7=Resolution
TTITLE8=Gonna Wait a Lifetime
TTITLE9=If You Could See Yourself (Through My Eyes)
TTITLE10=Under Pressure
TTITLE11=Give It All to Music
TTITLE12=Insanity
TTITLE13=Another World
EXTD=
EXTT0=
EXTT1=
EXTT2=
EXTT3=
EXTT4=
EXTT5=
EXTT6=
EXTT7=
EXTT8=
EXTT9=
EXTT10=
EXTT11=
EXTT12=
EXTT13=
PLAYORDER=
